<svg width="35" height="32" viewBox="0 0 35 32" fill="none" xmlns="http://www.w3.org/2000/svg">
<path d="M16.8929 0C10.9536 0 6 4.52938 6 10.3125C6 12.5126 6.69834 14.4745 8.03856 16.3129L16.0593 28.1616C16.4484 28.7376 17.3382 28.7365 17.7266 28.1616L25.7821 16.2726C27.0935 14.5175 27.7859 12.4567 27.7859 10.3125C27.7859 4.62619 22.8993 0 16.8929 0ZM16.8929 15C14.1629 15 11.9416 12.8971 11.9416 10.3125C11.9416 7.72794 14.1629 5.625 16.8929 5.625C19.623 5.625 21.8443 7.72794 21.8443 10.3125C21.8443 12.8971 19.623 15 16.8929 15Z" fill="#CD06FF"/>
<path d="M25.4891 21.5435L20.3313 28.9239C18.9962 30.829 15.9593 30.8228 14.6306 28.9257L9.46443 21.5454C4.91897 22.5073 2.11688 24.2693 2.11688 26.375C2.11688 30.0289 10.0333 32 17.4815 32C24.9297 32 32.846 30.0289 32.846 26.375C32.846 24.2678 30.0401 22.5048 25.4891 21.5435Z" fill="#CD06FF"/>
</svg>
